<?xml version="1.0" encoding="utf-8"?>
<!-- Generator: Adobe Illustrator 25.1.0, SVG Export Plug-In . SVG Version: 6.00 Build 0)  -->
<svg version="1.1" xmlns="http://www.w3.org/2000/svg" xmlns:xlink="http://www.w3.org/1999/xlink" x="0px" y="0px"
	 viewBox="0 0 95.07 95.06" style="enable-background:new 0 0 95.07 95.06;" xml:space="preserve">
<style type="text/css">
	.st0{fill:#F6E6FF;}
	.st1{fill:#F6D1FF;}
	.st2{fill:none;stroke:#9FC9FF;stroke-width:2;stroke-miterlimit:10;}
	.st3{fill:#F689FF;}
</style>
<g id="Layer_2">
	<circle class="st0" cx="47.42" cy="47.93" r="45.27"/>
	<path class="st1" d="M92.93,48.87c0.76,0.92,0.39,2.85-0.37,6.71c0,0-1.4,7.13-4.84,12.97C73.13,93.34,47.42,93.2,47.42,93.2
		C28.08,93.08,15.98,79.8,13.3,76.85C11.61,74.99,3.85,66.17,1.98,53.1c-0.59-4.11-0.06-4.89,0.17-5.17
		c0.65-0.82-0.68-3.75,0.62-3.63c8.12,0.74,30.45,19.83,53.47,17.16c16.32-1.9,31.08-16.75,36.45-17.16
		C93.54,44.23,92.49,48.33,92.93,48.87z"/>
	<circle class="st2" cx="47.42" cy="47.93" r="45.27"/>
</g>
<g id="Layer_1">
	<circle class="st3" cx="47.42" cy="25.02" r="8.37"/>
	<path class="st3" d="M44.45,57.39c-0.38-3.94-0.96-14.12-1.23-19.03c-0.08-1.47,1.08-2.72,2.55-2.74
		c16.75-0.17,39.91-2.19,28.56,8.91c-0.95,0.93-2.24,1.46-3.58,1.47c-1.84,0.01-4.65,0.02-7.15,0.02c-3.28,0-5.76,2.99-5.11,6.21
		c1.17,5.82,3.94,14.02,5.98,19.98c1.45,4.24-2.8,8.26-6.93,6.52c-5.47-2.31-5.53-9.79-12.02-18.66
		C44.93,59.29,44.54,58.37,44.45,57.39z"/>
	<path class="st3" d="M49.33,60.13c-6.49,8.86-6.55,16.34-12.02,18.66c-4.13,1.74-8.38-2.29-6.93-6.52
		c2.04-5.96,4.8-14.16,5.98-19.98c0.65-3.22-1.83-6.2-5.11-6.21c-2.5,0-5.31-0.01-7.15-0.02c-1.33-0.01-2.62-0.54-3.58-1.47
		c-11.35-11.1,11.81-9.08,28.56-8.91c1.48,0.01,2.64,1.26,2.55,2.74c-0.27,4.91-0.86,15.09-1.23,19.03
		C50.3,58.42,49.91,59.34,49.33,60.13z"/>
	<path class="st3" d="M103.65,80.95"/>
</g>
</svg>
