<svg height="512" viewBox="0 0 512 512" width="512" xmlns="http://www.w3.org/2000/svg"><g id="Filled_outline" data-name="Filled outline"><circle cx="320" cy="192" fill="#348ed8" r="168"/><rect fill="#85ccd5" height="296" rx="32" width="320" x="24" y="192"/><path d="m344 248v208a32 32 0 0 1 -32 32h-256a32 32 0 0 1 -32-32v-48" fill="#7fc6ce"/><path d="m208 408 43.029 43.029a16.972 16.972 0 0 0 12 4.971 16.971 16.971 0 0 0 16.971-16.971 16.972 16.972 0 0 0 -4.971-12l-43.029-43.029z" fill="#c74431"/><circle cx="184" cy="360" fill="#d65246" r="72"/><circle cx="184" cy="360" fill="#2c86d1" r="48"/><circle cx="184" cy="360" fill="#348ed8" r="32"/><path d="m280 376h40v16h-40z"/><path d="m304 408h16v16h-16z"/><path d="m112 216h16v16h-16z"/><path d="m104 360a79.944 79.944 0 0 0 116.062 71.376l25.311 25.311a25.148 25.148 0 0 0 17.657 7.313 24.971 24.971 0 0 0 17.657-42.627l-25.311-25.311a79.988 79.988 0 0 0 -115.826-102.585l8.9 13.3a64.05 64.05 0 1 1 -12.156 10.563l-11.921-10.67a79.859 79.859 0 0 0 -20.373 53.33zm142.517 49.831 22.856 22.856a8.97 8.97 0 0 1 -12.686 12.686l-22.856-22.856a80.7 80.7 0 0 0 12.686-12.686z"/><path d="m186.758 53.759-11.105-11.519a208.261 208.261 0 0 0 -62.171 124.81l15.887 1.9a192.214 192.214 0 0 1 57.389-115.191z"/><path d="m312 184h-256a40.045 40.045 0 0 0 -40 40v16h16v-16a24.027 24.027 0 0 1 24-24h256a24.027 24.027 0 0 1 24 24v232a24.027 24.027 0 0 1 -24 24h-256a24.027 24.027 0 0 1 -24-24v-200h-16v200a40.045 40.045 0 0 0 40 40h256a40.045 40.045 0 0 0 40-40v-232a40.045 40.045 0 0 0 -40-40z"/><path d="m80 216h16v16h-16z"/><path d="m212.486 32.9-8.972-13.248c-5.725 3.877-11.323 8.09-16.637 12.521l10.246 12.289c4.907-4.091 10.077-7.981 15.363-11.562z"/><path d="m48 248h272v16h-272z"/><path d="m48 216h16v16h-16z"/><path d="m272 312h48v16h-48z"/><path d="m48 440h80v16h-80z"/><path d="m496 192c0-62.217-34.968-122.176-88.866-152.948a174.283 174.283 0 0 0 -103.949-22.252 176.454 176.454 0 0 0 -85.974 32.332c-38.37 27.613-64.851 71.245-71.465 117.985l15.842 2.242a157.9 157.9 0 0 1 19.823-57.359h45.348a279.538 279.538 0 0 0 -9.8 55.375l15.951 1.25a260.383 260.383 0 0 1 10.563-56.625h68.527v56h16v-56h60.543c6.791 21.974 10.663 46.608 11.338 72h-39.881v16h39.881c-.858 31.72-6.79 62.5-16.978 88h-14.903v16h7.609a129.3 129.3 0 0 1 -15.609 23.745l13.927 8.255a154.844 154.844 0 0 0 19.5-32h40.809a160.949 160.949 0 0 1 -72.816 42.582l4.13 15.458c89.45-22.373 130.45-97.04 130.45-170.04zm-264.03-96h-39.981a160.2 160.2 0 0 1 70.84-53.44c-12.267 13.432-22.848 31.551-30.859 53.44zm80.03 0h-62.9c15.074-37.817 38.061-61.408 62.734-63.8h.166zm167.778 88h-63.892a289.915 289.915 0 0 0 -10.645-72h53.333a159.4 159.4 0 0 1 21.204 72zm-151.778-88v-62.3c21.663 6.083 41.421 28.458 54.9 62.3zm37.372-57.441a158.817 158.817 0 0 1 33.828 14.389 161.116 161.116 0 0 1 48.8 43.052h-47.97c-8.843-24.168-20.783-43.718-34.658-57.441zm34.671 249.441c9.65-26.265 15.071-56.315 15.852-88h63.9a158.006 158.006 0 0 1 -31.788 88z"/><path d="m48 408h48v16h-48z"/><path d="m366.087 378.435 3.826 15.536c5.593-1.378 11.193-3.01 16.646-4.85l-5.118-15.16c-5.029 1.698-10.195 3.203-15.354 4.474z"/><path d="m395.37 368.644 6.286 14.713a207.762 207.762 0 0 0 93.059-78.448l-13.43-8.7a191.833 191.833 0 0 1 -85.915 72.435z"/><path d="m48 376h40v16h-40z"/><path d="m48 280h72v16h-72z"/><path d="m256 280h64v16h-64z"/><path d="m280 344h40v16h-40z"/><path d="m184 408a48 48 0 1 0 -48-48 48.055 48.055 0 0 0 48 48zm0-80a32 32 0 1 1 -32 32 32.036 32.036 0 0 1 32-32z"/><path d="m48 312h48v16h-48z"/><path d="m48 344h40v16h-40z"/></g></svg>