<svg enable-background="new 0 0 24 24" height="512" viewBox="0 0 24 24" width="512" xmlns="http://www.w3.org/2000/svg"><path d="m18.3 4.525v13.95c0 .225-.108.432-.297.558-.117.081-.243.117-.378.117-.081 0-.171-.018-.252-.045l-9.063-3.627-1.422-.567-.648-.261-.117-.045c-.252-.108-.423-.351-.423-.63v-4.95c0-.279.171-.522.423-.63l.117-.045 11.133-4.455c.207-.081.441-.054.63.072s.297.333.297.558z" fill="#eceff1"/><path d="m7.769 20.446c.015.153-.036.306-.139.423-.102.117-.255.182-.408.182h-2.187c-.27 0-.503-.197-.539-.467l-.902-6.584h1.822l.525.211 1.152.459z" fill="#607d8b"/><path d="m2.854 8.665c-1.004 0-1.822.818-1.822 1.823v2.227c0 .956.745 1.62 1.822 1.62h2.713v-5.67z" fill="#2196f3"/><path d="m17.972 3.054-12.366 4.946h-3.356c-1.24 0-2.25 1.01-2.25 2.25v2.75c0 1.178.925 2 2.25 2h.85l.908 6.356c.053.37.369.644.742.644h3c.214 0 .417-.091.56-.25.142-.159.21-.371.186-.584l-.59-5.246 10.065 4.026c.091.036.185.054.279.054.147 0 .295-.044.421-.129.206-.14.329-.372.329-.621v-15.5c0-.249-.123-.481-.329-.621-.207-.14-.469-.168-.699-.075zm-16.472 9.946v-2.75c0-.413.337-.75.75-.75h2.75v4h-2.75c-.342 0-.75-.087-.75-.5zm5.411 7.5h-1.511l-.785-5.5h.991l.721.288zm10.589-2.357-10.176-4.071c-.043-.02-.084-.041-.131-.053l-.693-.277v-4.484l11-4.4z"/><path d="m21.219 9.336 2.5-2c.323-.259.376-.731.117-1.055-.26-.322-.731-.374-1.055-.117l-2.5 2c-.323.259-.376.731-.117 1.055.148.184.366.281.586.281.165 0 .33-.054.469-.164z"/><path d="m21.219 14.664c-.322-.257-.794-.205-1.055.117-.259.323-.206.796.117 1.055l2.5 2c.139.11.304.164.469.164.22 0 .438-.097.586-.281.259-.323.206-.796-.117-1.055z"/><path d="m23.25 11.25h-2.5c-.414 0-.75.336-.75.75s.336.75.75.75h2.5c.414 0 .75-.336.75-.75s-.336-.75-.75-.75z"/></svg>