<svg id="_x31__x2C_5" enable-background="new 0 0 24 24" height="512" viewBox="0 0 24 24" width="512" xmlns="http://www.w3.org/2000/svg"><path d="m12 16.93c-1.34 0-2.43-1.09-2.43-2.43s1.09-2.43 2.43-2.43 2.43 1.09 2.43 2.43-1.09 2.43-2.43 2.43z" fill="#2196f3"/><path d="m16.275 24h-8.55c-.373 0-.675-.302-.675-.675v-1.35c0-1.365 1.11-2.475 2.475-2.475h4.95c1.365 0 2.475 1.11 2.475 2.475v1.35c0 .373-.302.675-.675.675z" fill="#2196f3"/><path d="m16.109 11.701c-.066 0-.132-.008-.199-.027-.399-.109-.635-.522-.525-.921.077-.282.115-.567.115-.871 0-1.893-1.57-3.434-3.5-3.434s-3.5 1.541-3.5 3.434c0 .304.038.588.115.871.11.399-.125.812-.525.921-.396.111-.812-.125-.921-.525-.114-.413-.169-.827-.169-1.267 0-2.72 2.243-4.934 5-4.934s5 2.213 5 4.934c0 .439-.055.854-.168 1.267-.092.333-.394.552-.723.552z"/><path d="m17.755 17.947c-.221 0-.44-.097-.588-.284-.257-.325-.203-.796.122-1.054 2.041-1.617 3.211-4.037 3.211-6.639 0-4.675-3.813-8.478-8.5-8.478s-8.5 3.804-8.5 8.479c0 2.602 1.17 5.021 3.211 6.639.325.257.379.729.122 1.054s-.729.38-1.054.122c-2.402-1.905-3.779-4.753-3.779-7.815 0-5.502 4.486-9.978 10-9.978s10 4.476 10 9.978c0 3.063-1.377 5.911-3.78 7.814-.137.109-.302.162-.465.162z"/><path d="m12 17.5c-1.654 0-3-1.346-3-3s1.346-3 3-3 3 1.346 3 3-1.346 3-3 3zm0-4.5c-.827 0-1.5.673-1.5 1.5s.673 1.5 1.5 1.5 1.5-.673 1.5-1.5-.673-1.5-1.5-1.5z"/><path d="m16.75 24c-.414 0-.75-.336-.75-.75v-1.5c0-.689-.561-1.25-1.25-1.25h-5.5c-.689 0-1.25.561-1.25 1.25v1.5c0 .414-.336.75-.75.75s-.75-.336-.75-.75v-1.5c0-1.517 1.233-2.75 2.75-2.75h5.5c1.517 0 2.75 1.233 2.75 2.75v1.5c0 .414-.336.75-.75.75z"/></svg>