<?xml version="1.0" encoding="utf-8"?>
<!-- Generator: Adobe Illustrator 25.1.0, SVG Export Plug-In . SVG Version: 6.00 Build 0)  -->
<svg version="1.1" id="Layer_1" xmlns="http://www.w3.org/2000/svg" xmlns:xlink="http://www.w3.org/1999/xlink" x="0px" y="0px"
	 viewBox="0 0 200 200" style="enable-background:new 0 0 200 200;" xml:space="preserve">
<style type="text/css">
	.st0{fill:#FFFF7D;}
</style>
<circle class="st0" cx="100" cy="100" r="69.66"/>
<rect x="97.68" y="6.88" class="st0" width="4.64" height="13.46"/>
<rect x="97.68" y="179.66" class="st0" width="4.64" height="13.46"/>
<rect x="11.29" y="93.27" transform="matrix(-1.836970e-16 1 -1 -1.836970e-16 113.608 86.392)" class="st0" width="4.64" height="13.46"/>
<rect x="24.42" y="145.41" transform="matrix(0.7071 0.7071 -0.7071 0.7071 115.4073 25.6561)" class="st0" width="4.64" height="13.46"/>
<rect x="155.87" y="26.06" transform="matrix(0.7071 0.7071 -0.7071 0.7071 69.515 -102.2534)" class="st0" width="4.64" height="13.46"/>
<rect x="184.07" y="93.27" transform="matrix(-1.836970e-16 1 -1 -1.836970e-16 286.392 -86.392)" class="st0" width="4.64" height="13.46"/>
<rect x="164.92" y="153.78" transform="matrix(-0.7071 0.7071 -0.7071 -0.7071 398.9956 155.7536)" class="st0" width="4.64" height="13.46"/>
<rect x="37.2" y="26.06" transform="matrix(-0.7071 0.7071 -0.7071 -0.7071 90.6375 28.0275)" class="st0" width="4.64" height="13.46"/>
</svg>
